<svg xmlns="http://www.w3.org/2000/svg" viewBox="0 0 1146.03 287.01"><defs><style>.cls-1,.cls-3{fill:#e6007e;}.cls-2{fill:none;}.cls-2,.cls-3{stroke:#e6007e;stroke-width:7.09px;}.cls-2,.cls-3,.cls-4{stroke-miterlimit:10;}.cls-4{fill:#005182;stroke:#005182;stroke-width:2.83px;}</style></defs><g id="Layer_2" data-name="Layer 2"><g id="Layer_1-2" data-name="Layer 1"><path class="cls-1" d="M186,199.53c-2.49-2-4.8-3.46-6.87-3.85a8.19,8.19,0,0,0-2.87-.07,4.86,4.86,0,0,0-.72.15,4.24,4.24,0,0,0-.73.17,12.54,12.54,0,0,0-1.46.52,18.86,18.86,0,0,0-5.6,3.83c-1.93,1.74-3.81,3.81-6.1,6.07a13.4,13.4,0,0,1,.06-4.77,16.86,16.86,0,0,1,1.51-4.56,15.61,15.61,0,0,1,2.94-4.11,13.29,13.29,0,0,1,4.51-3,14.11,14.11,0,0,1,2.65-.79,8.93,8.93,0,0,1,1.4-.17,8.52,8.52,0,0,1,1.43,0,10.47,10.47,0,0,1,5.46,1.82,10.18,10.18,0,0,1,3.43,4A9.53,9.53,0,0,1,186,199.53Z"/><path class="cls-1" d="M204.89,211.61a20.82,20.82,0,0,1-1.42,4.11,28.12,28.12,0,0,1-2.08,3.86,34.25,34.25,0,0,1-5.7,6.81,35.19,35.19,0,0,1-15.9,8.41,38.75,38.75,0,0,1-9,1,40,40,0,0,1-8.84-1.16,41.5,41.5,0,0,1-15.65-7.41c5.71.82,11.14,1.66,16.46,1.9a64.31,64.31,0,0,0,7.86-.05c.64-.08,1.28-.12,1.92-.18s1.27-.18,1.91-.26l.95-.12.93-.19c.63-.13,1.26-.21,1.87-.39A46.24,46.24,0,0,0,192.3,222a56.93,56.93,0,0,0,6.47-4.68A67.59,67.59,0,0,0,204.89,211.61Z"/><path class="cls-2" d="M7.19,237.89c-6.86-16.07-3.76-32.8,6.93-37.37l1-.37A176,176,0,0,1,7,167a122.34,122.34,0,0,1,242.65-31.43c11.27,1,20.35,12,20.7,25.61.25,10.24-4.47,19.23-11.58,23.74a34.94,34.94,0,0,1,7.75,17.61c2.68,21.45-17.8,44.24-46.36,53.75-5.44,8.22-19.54,16.1-25.95,18.47-7.13,2.64-20.13,2.43-30.34-.2a101.18,101.18,0,0,1-27.48,7.71c-34.79,4.69-69.09-3.78-92.31-27l-.16-.29C35,256.2,13.07,251.65,7.19,237.89Z"/><path class="cls-1" d="M12.94,221.52a8.19,8.19,0,0,1,4.65-5.45,13,13,0,0,1,7.62-.87l.94.16c.31.07.6.14.9.23.59.18,1.21.33,1.78.55s1.12.45,1.68.69a11,11,0,0,1,1.85,1,43.75,43.75,0,0,1,5.41,4.35L44,227.86l-8.37.41-.47,0c-.19,0-.38.07-.57.1-.38.07-.76.16-1.11.25a8.3,8.3,0,0,0-1.72.68,2.45,2.45,0,0,0-.7.61,1,1,0,0,1-.13.22,1.45,1.45,0,0,1,0,.35l-.05.18a2.12,2.12,0,0,0,0,.24l0,.49a12.78,12.78,0,0,0,.59,2.26,6.43,6.43,0,0,0,1.2,1.9,7.14,7.14,0,0,0,5.07,1.89,6.66,6.66,0,0,1-3.06,1.38,6.88,6.88,0,0,1-3.7-.32,8.64,8.64,0,0,1-3.24-2.23,13,13,0,0,1-2.08-3.22l-.36-1c-.05-.17-.12-.33-.16-.51L25,231c-.05-.39-.11-.78-.13-1.17s.07-.86.13-1.29a4.87,4.87,0,0,1,.35-1.28,5.38,5.38,0,0,1,.57-1.21,9.15,9.15,0,0,1,.77-1.05c.28-.3.57-.59.86-.87a11.89,11.89,0,0,1,3.71-2.09,13.76,13.76,0,0,1,1.84-.54c.31-.06.62-.13.94-.17a10.18,10.18,0,0,1,1-.14L33,227.34c-1.5-1.36-3.13-2.87-4.53-4a4.55,4.55,0,0,0-.95-.68c-.41-.24-.82-.48-1.23-.75s-.83-.42-1.24-.65l-.63-.33-.62-.26a12.53,12.53,0,0,0-5.21-1.18A9.44,9.44,0,0,0,12.94,221.52Z"/><path class="cls-1" d="M84.76,193.44A20.66,20.66,0,0,1,87,187.7a27.45,27.45,0,0,1,3.6-5,23.85,23.85,0,0,1,10.81-7,18.77,18.77,0,0,1,13.26.9,19.59,19.59,0,0,1,9,8.61,59,59,0,0,0-10.71-3.31,21.36,21.36,0,0,0-9.54.6,36.79,36.79,0,0,0-9.19,4.38C91.12,188.81,88.1,191.06,84.76,193.44Z"/><path class="cls-1" d="M233.75,155.17c-3.49-.09-6.59-.26-9.57-.24a41.33,41.33,0,0,0-8.36.72,27.12,27.12,0,0,0-7.56,2.71,72.77,72.77,0,0,0-7.78,5.21,16,16,0,0,1,4.28-9.55,18,18,0,0,1,4.4-3.41,18.49,18.49,0,0,1,5.27-1.9,20.72,20.72,0,0,1,10.72.75A18.76,18.76,0,0,1,233.75,155.17Z"/><path class="cls-1" d="M158.47,15.54a26.77,26.77,0,0,1-6.68,2.22c-2.3.5-4.63.81-6.93,1.09a128.16,128.16,0,0,0-13.37,1.86,48.34,48.34,0,0,0-12.1,4.18,20.78,20.78,0,0,0-8.64,7.62L105,42.39l-.87-11.33a31.41,31.41,0,0,1,.13-6.42,23.83,23.83,0,0,1,1.65-6.41,22,22,0,0,1,3.46-5.71,23.65,23.65,0,0,1,4.9-4.33,28.83,28.83,0,0,1,11.58-4.31,36,36,0,0,1,11.86.22c-1.93.34-3.83.69-5.68,1.15a52.59,52.59,0,0,0-5.38,1.69,30.36,30.36,0,0,0-9.26,5.38,18.08,18.08,0,0,0-5.37,8.19,25.53,25.53,0,0,0-.85,10L104.61,29a22,22,0,0,1,5.24-6.18,30.11,30.11,0,0,1,6.57-4.07,43.71,43.71,0,0,1,14.24-3.59,84.94,84.94,0,0,1,14.12.2C149.37,15.71,153.86,16.16,158.47,15.54Z"/><path class="cls-1" d="M50.3,34.66c4.35-1.06,8.13-3.11,12.1-5.06,2-1,4-2,6.12-2.83a46.45,46.45,0,0,1,6.62-2.13,43,43,0,0,1,14.08-1.1A31.93,31.93,0,0,1,96.41,25a23.83,23.83,0,0,1,6.83,3.51L97.9,32.78a30.47,30.47,0,0,0-2.4-4.46,21,21,0,0,0-3.2-3.74,31.45,31.45,0,0,0-4.11-3.16,42.42,42.42,0,0,0-4.6-2.63,27.25,27.25,0,0,0-10.3-2.32A44.7,44.7,0,0,0,62,17.55a29.94,29.94,0,0,1,5.25-2.71A28.25,28.25,0,0,1,73,13.16a26.91,26.91,0,0,1,12.42.59,29.25,29.25,0,0,1,3,1.11c.94.4,1.88.81,2.79,1.3a29.92,29.92,0,0,1,5.36,3.42,26.78,26.78,0,0,1,7.77,10.35l5.25,12L99,34.18A23.79,23.79,0,0,0,88.42,30.3a47.28,47.28,0,0,0-12.24,0A89.21,89.21,0,0,0,63.66,33a67,67,0,0,1-6.59,1.45c-1.12.17-2.26.29-3.39.36A22.38,22.38,0,0,1,50.3,34.66Z"/><path class="cls-1" d="M79.25,0a25,25,0,0,0,4.57,2.86l4.75,2.47C90.16,6.16,91.74,7,93.33,8a41,41,0,0,1,4.74,3.22,29,29,0,0,1,4.21,4.09,17.18,17.18,0,0,1,3.13,5.48,11.1,11.1,0,0,1,.22,6.67,9.74,9.74,0,0,1-3.5,5,24.3,24.3,0,0,0-.59-5.29,12.32,12.32,0,0,0-1.81-3.83,37.39,37.39,0,0,0-2.81-3.49L95.27,18c-.29-.3-.57-.62-.85-.93l-.85-.88C91.3,14,88.41,11.7,85.8,9.14A46.84,46.84,0,0,1,82,5,13.74,13.74,0,0,1,79.25,0Z"/><path class="cls-3" d="M347.42,82.32h6.09A21.25,21.25,0,0,1,367,87q6.53,5.2,6.53,14.13v5a28.09,28.09,0,0,1,17.08,9,31.06,31.06,0,0,1,8.92,22.3,30.66,30.66,0,0,1-8.92,22.1,29.11,29.11,0,0,1-21.85,9.36,28.66,28.66,0,0,1-21.73-9.23,30.66,30.66,0,0,1-8.86-22.23,31.07,31.07,0,0,1,8.86-22.27,28.89,28.89,0,0,1,21.73-9.26v-3.45q0-7.67-5-11.87A15.22,15.22,0,0,0,353.52,87H347.8v9.48h-4.14V78h3.76Zm47,55.05a27.18,27.18,0,0,0-7.35-18.88,24.65,24.65,0,0,0-36.42-.13,27.24,27.24,0,0,0-7.41,19,26.86,26.86,0,0,0,7.28,18.75,24.8,24.8,0,0,0,36.55.13A26.92,26.92,0,0,0,394.4,137.37Z"/><path class="cls-3" d="M429.37,109.05h-5a67.6,67.6,0,0,1,1.07-13.49,18.76,18.76,0,0,1,4.83-9.1,28.93,28.93,0,0,1,41.89.13q8.55,9,8.54,22.49v29.45q0,13.88-8.41,21.86t-22,8q-16,0-25.44-10.73l1.51-4.59a23.94,23.94,0,0,0,7.75,6.81A33,33,0,0,0,442,162.9a35.53,35.53,0,0,0,7.73.94q13,0,19.28-6.34,7-6.9,7-22.34V109.05a27.56,27.56,0,0,0-6.85-18.76,22.67,22.67,0,0,0-17.83-8.22q-9.68,0-17,7.72a15.53,15.53,0,0,0-4.08,7.75A63.13,63.13,0,0,0,429.37,109.05Z"/><path class="cls-3" d="M539.77,82.76a26.63,26.63,0,0,0-9.93,1.66,22.58,22.58,0,0,0-8.22,6.31,37.48,37.48,0,0,0-7.92,13.84q-2.07,7.05-2.07,19.36a70.87,70.87,0,0,0,2.55,17.76,42.44,42.44,0,0,0,7.31,15.12,21.26,21.26,0,0,0,9.17,6.41v5q-8.16-2.4-12.62-8a53.73,53.73,0,0,1-5.15-7.79,46.15,46.15,0,0,1-3.52-8.44,59.88,59.88,0,0,1-2.07-9.68,79.06,79.06,0,0,1-.69-10.45q0-6.09.25-10a50,50,0,0,1,1.32-8.42,38.92,38.92,0,0,1,3.45-9,42.89,42.89,0,0,1,6.41-9q8.48-9.23,21.73-9.23t21.73,9.23a41.39,41.39,0,0,1,7.82,11.71,39.93,39.93,0,0,1,3.1,11.34A129.81,129.81,0,0,1,573,123.9a67.16,67.16,0,0,1-2.83,20.35,47.56,47.56,0,0,1-8.66,16,24.38,24.38,0,0,1-12.56,8v-5a20.54,20.54,0,0,0,9.1-6.41,41.11,41.11,0,0,0,7.38-15.09A71.7,71.7,0,0,0,568,123.93q0-12.3-2.11-19.39a37.39,37.39,0,0,0-7.94-13.81,22,22,0,0,0-8.14-6.27A26.56,26.56,0,0,0,539.77,82.76Z"/><path class="cls-3" d="M605.13,82.32h6.09A21.25,21.25,0,0,1,624.73,87q6.53,5.2,6.53,14.13v5a28.09,28.09,0,0,1,17.08,9,31.06,31.06,0,0,1,8.92,22.3,30.66,30.66,0,0,1-8.92,22.1,29.12,29.12,0,0,1-21.86,9.36,28.64,28.64,0,0,1-21.72-9.23,30.66,30.66,0,0,1-8.86-22.23,31.07,31.07,0,0,1,8.86-22.27,28.89,28.89,0,0,1,21.72-9.26v-3.45q0-7.67-5-11.87A15.23,15.23,0,0,0,611.23,87h-5.72v9.48h-4.15V78h3.77Zm47,55.05a27.18,27.18,0,0,0-7.35-18.88,24.65,24.65,0,0,0-36.42-.13,27.21,27.21,0,0,0-7.42,19,26.87,26.87,0,0,0,7.29,18.75,24.8,24.8,0,0,0,36.55.13A26.92,26.92,0,0,0,652.11,137.37Z"/><path class="cls-3" d="M713.21,82.76a26.63,26.63,0,0,0-9.93,1.66,22.69,22.69,0,0,0-8.23,6.31,37.59,37.59,0,0,0-7.91,13.84q-2.07,7.05-2.07,19.36a70.85,70.85,0,0,0,2.54,17.76,42.29,42.29,0,0,0,7.32,15.12,21.26,21.26,0,0,0,9.17,6.41v5q-8.16-2.4-12.62-8a53.73,53.73,0,0,1-5.15-7.79,46.15,46.15,0,0,1-3.52-8.44,59.88,59.88,0,0,1-2.07-9.68,77.4,77.4,0,0,1-.7-10.45q0-6.09.26-10a49,49,0,0,1,1.32-8.42,38.92,38.92,0,0,1,3.45-9,42.89,42.89,0,0,1,6.41-9q8.47-9.23,21.73-9.23t21.73,9.23a41.13,41.13,0,0,1,7.81,11.71,39.64,39.64,0,0,1,3.11,11.34,129.81,129.81,0,0,1,.57,13.38,67.16,67.16,0,0,1-2.83,20.35,47.56,47.56,0,0,1-8.66,16,24.38,24.38,0,0,1-12.56,8v-5a20.54,20.54,0,0,0,9.1-6.41,41.11,41.11,0,0,0,7.38-15.09,71.22,71.22,0,0,0,2.54-17.79q0-12.3-2.1-19.39a37.39,37.39,0,0,0-7.94-13.81,22,22,0,0,0-8.14-6.27A26.56,26.56,0,0,0,713.21,82.76Z"/><path class="cls-3" d="M833,167.61V163q9.42,0,17-7.72a26.26,26.26,0,0,0,7.6-19q0-12.44-5.53-18.66a18.69,18.69,0,0,0-14.32-6.28,20,20,0,0,0-14.88,6.41q-5.54,5.71-5.53,16.52v7.16h-4.65V134.2a25.55,25.55,0,0,0-6.28-16.52,21.39,21.39,0,0,0-15.45-6.41q-9.29,0-14.38,6.16-4.9,5.89-4.9,18.78a26.26,26.26,0,0,0,7.6,19q7.41,7.72,17,7.72v4.65a27.41,27.41,0,0,1-20.85-9q-8.24-8.67-8.61-22.55a45.23,45.23,0,0,1,1.92-13.75,22.76,22.76,0,0,1,5.43-9.49q6.4-6.59,17-6.59a25.35,25.35,0,0,1,17.08,6.15q6,5.53,6.22,12,.25-6.47,6.66-12a25.58,25.58,0,0,1,17.14-6.15q10.49,0,17,6.59,7.35,7.35,7.35,23.24-.69,14.26-8.67,22.55A27.34,27.34,0,0,1,833,167.61ZM769,114.73v-5.15q0-13.58,8.35-22.49a28.42,28.42,0,0,1,21.36-9h41.89v4.65H798.67a23.18,23.18,0,0,0-17.9,8,27.11,27.11,0,0,0-7.1,18.86Z"/><path class="cls-3" d="M914.4,90.3c-.54,5.31-2,9.17-4.39,11.55a14.28,14.28,0,0,1-4.49,3,15.29,15.29,0,0,1-5.69,1,14,14,0,0,1-10-4q-4.15-4.16-4.15-11.31V78.24h4.65V90.05a11.21,11.21,0,0,0,2.58,7.34,8.65,8.65,0,0,0,6.9,3.08q4.9,0,7.35-3c1.22-1.51,2-4.42,2.33-8.73q.87-5.22,4-7.66a12.77,12.77,0,0,1,7.53-2.64q7.92,0,11.62,5.27a13.14,13.14,0,0,1,2.57,6.29q1.77-6,5.41-9a13.74,13.74,0,0,1,9-3.07c4.69,0,8.7,2,12.06,5.9s4.89,9.29,4.89,16v39.32q0,13.93-8.35,21.92t-22,8a38.47,38.47,0,0,1-13.85-2.45,30.11,30.11,0,0,1-11.65-8.22l1.57-4.65a27,27,0,0,0,15.58,9.92,36.43,36.43,0,0,0,7.72.88q13,0,19.28-6.34,6.92-6.85,6.91-22.36V100.09q0-8.16-4-12.87a13.2,13.2,0,0,0-3.36-3.14,8.08,8.08,0,0,0-4.23-1,11.18,11.18,0,0,0-8.48,3.52,18.27,18.27,0,0,0-5,13V119h-4.65V98.4q0-7.61-2.82-11.18a8.71,8.71,0,0,0-7.41-3.33Q915.28,83.89,914.4,90.3Z"/><path class="cls-3" d="M998.11,98.15h-5.53a31.2,31.2,0,0,1,6.85-11.06,29.5,29.5,0,0,1,42.39,0q8.42,8.86,8.41,22.49v27.94a34.79,34.79,0,0,1-2.1,12.44,29.39,29.39,0,0,1-6.31,9.92,28.92,28.92,0,0,1-41.89,0q-8.61-9-8.6-22.48t8.47-22.67a27.62,27.62,0,0,1,21-8.86,26,26,0,0,1,11.56,2.58,39,39,0,0,1,7.34,5v5.78a31.42,31.42,0,0,0-8.66-6.72,23,23,0,0,0-10.24-2.14q-9.67,0-17,7.75a26.82,26.82,0,0,0-7.38,19.23,26.54,26.54,0,0,0,7.41,19.13q7.47,7.71,17,7.72a22.57,22.57,0,0,0,17.68-7.94,27.41,27.41,0,0,0,7-18.78V109.6a27.16,27.16,0,0,0-7.09-18.88,22.76,22.76,0,0,0-17.84-8q-9.67,0-17.15,7.69A24.32,24.32,0,0,0,998.11,98.15Z"/><path class="cls-3" d="M1109.26,82.76a26.67,26.67,0,0,0-9.93,1.66,22.58,22.58,0,0,0-8.22,6.31,37.62,37.62,0,0,0-7.92,13.84q-2.07,7.05-2.07,19.36a70.87,70.87,0,0,0,2.55,17.76,42.44,42.44,0,0,0,7.31,15.12,21.26,21.26,0,0,0,9.17,6.41v5q-8.16-2.4-12.62-8a53.73,53.73,0,0,1-5.15-7.79,46.15,46.15,0,0,1-3.52-8.44,59.88,59.88,0,0,1-2.07-9.68,79.06,79.06,0,0,1-.69-10.45q0-6.09.25-10a51,51,0,0,1,1.32-8.42,38.92,38.92,0,0,1,3.45-9,42.89,42.89,0,0,1,6.41-9q8.48-9.23,21.73-9.23T1131,87.47a41.39,41.39,0,0,1,7.82,11.71,40.3,40.3,0,0,1,3.11,11.34,133.1,133.1,0,0,1,.56,13.38,67.49,67.49,0,0,1-2.82,20.35,47.76,47.76,0,0,1-8.67,16,24.38,24.38,0,0,1-12.56,8v-5a20.63,20.63,0,0,0,9.11-6.41,41.25,41.25,0,0,0,7.37-15.09,70.78,70.78,0,0,0,2.55-17.79q0-12.3-2.11-19.39a37.39,37.39,0,0,0-7.94-13.81,22.05,22.05,0,0,0-8.13-6.27A26.65,26.65,0,0,0,1109.26,82.76Z"/><path class="cls-4" d="M369.11,238.15c0,7.89-4.33,15.31-12.92,15.31s-12.92-7.42-12.92-14.79v-2.26c0-2.33,1.29-5,3-7.56l2.07,1a17.88,17.88,0,0,0-1.74,6.53v2.45c0,5.95,2.39,12,9.56,12,6.65,0,9.62-5,9.62-12.92v-2.39c0-6.79-3.81-10.86-7.62-14.8-3.49-3.81-7-7.49-7-13.37v-2.59h3v2.59c0,5,3.36,8.53,6.85,12.34,3.94,4.2,8.14,8.72,8.14,15.83Z"/><path class="cls-4" d="M383.2,204.17h3.23v21.32a10.89,10.89,0,0,1,9.62-6.07c8.86,0,12.93,6.46,12.93,14.15v6.58c0,5.82-4.07,13.31-12.93,13.31-7.88,0-12.85-8-12.85-14Zm3.23,34.24c0,6.46,3.55,12.47,9.62,12.47s9.63-5.36,9.63-11.82v-4.33c0-8.21-3.49-12.73-9.63-12.73-5.87,0-9.62,4.52-9.62,12.53Z"/><path class="cls-4" d="M448.26,238.15c0,7.89-4.33,15.31-12.92,15.31s-12.92-7.42-12.92-14.79v-2.26c0-2.33,1.29-5,3-7.56l2.07,1a17.88,17.88,0,0,0-1.74,6.53v2.45c0,5.95,2.39,12,9.56,12,6.66,0,9.63-5,9.63-12.92v-2.39c0-6.79-3.82-10.86-7.63-14.8-3.49-3.81-7-7.49-7-13.37v-2.59h3v2.59c0,5,3.36,8.53,6.85,12.34,3.94,4.2,8.14,8.72,8.14,15.83Z"/><path class="cls-4" d="M521.34,220.45c0,5.23-2.58,13.63-7.82,17.06l-1.94-1.81c4.91-4.07,6.4-10.92,6.4-15.57V218c0-7.1-3.49-10.85-7.88-10.85-6.85,0-8.21,4.39-8.21,10v9.63h-3v-9.63c0-5.36-1.16-10.27-7.43-10.27s-7.5,5.1-7.5,10.08v9.82h-3V216.9c0-5-.39-9.76-8.07-9.76-5.62,0-7.95,5.3-7.95,12V224c0,16.35,16.22,25.85,37.67,25.85h5v3H502.8c-27.27,0-41.16-12.86-41.16-28.75V219c0-8.27,3.42-14.47,11.31-14.47,4.13,0,7.88.65,9.62,7.62,1.68-6.91,5-7.94,8.92-7.94,3.68,0,7.24,1.23,8.85,7.94,1.81-6.84,6.4-7.62,9.69-7.62,6.33,0,11.31,4.72,11.31,13.18Z"/><path class="cls-4" d="M564.7,240.67c0,8.4-6.46,12.79-13.51,12.79-7.36,0-13.56-7.1-13.56-14v-3.88c0-7.49,5-14.6,13.24-14.6,2.84,0,8.47,1,10.21,5.49h.71V214.83c0-6.53-1-8-6.4-8-3.94,0-5.68,2-5.68,5.75V215h-2.46v-2.39c0-4.27-3.23-5.75-6.46-5.75-3.62,0-4.65,2.32-4.65,4.2v4.65h-2.39V211a6.63,6.63,0,0,1,6.59-6.85c3.94,0,6.27,1.16,8,5.1,1.68-3.81,4.2-5.1,7.37-5.1,6.52,0,9,3.42,9,10.79Zm-3.23-6c0-7.75-3.69-10.85-10.53-10.85-5.82-.13-10,6.07-10,12.47v3c0,5.94,4.14,11.56,10.27,11.56,5.56,0,10.28-3.81,10.28-10.21Z"/><path class="cls-4" d="M619.81,224.52c0-10.27-.51-17.7-8.78-17.7-6,0-8,4.58-8,11.5v18.73h-3.3V218.32c0-7.37-1.87-11.5-8-11.5-7.69,0-8.92,7.56-8.92,18.09v5.36c0,8.85,2.52,20,9,20.55v2.64C582.08,253,579.5,239,579.5,230.4v-5.49c0-10.86,1.48-20.74,12.27-20.74,5.17,0,8.27,3,9.44,8.72,1.55-5.75,4.13-8.72,9.75-8.72,10.34,0,12.21,9.88,12.28,20.16l-.07,6.07c0,8.59-2.9,22.55-12.14,23.06v-2.64c5.94-.52,8.78-11.7,8.78-20.81Z"/><path class="cls-4" d="M644.37,204.17c0,4.84,9.76,3.49,9.76,9.17,0,2.52-.84,4.27-2.33,6.66,7.37,1.68,11.31,9.5,11.31,14.47v5c0,5.95-4.07,14-12.93,14-8.52,0-12.92-8.14-12.92-14.08v-4.91c0-5.69,3.56-13.24,12.15-14.6,1.74-3.17,1.87-4.27,1.87-6.33,0-4.4-9.69-3.56-9.69-9.37Zm-3.75,34.5c0,5.62,2.84,12.21,9.56,12.21,7.05,0,9.63-6.4,9.63-11.82v-4.2c0-5-3.16-12.15-9.63-12.15-6.91,0-9.56,6.07-9.56,12.15Z"/><path class="cls-4" d="M701.68,230.85c0,7,0,19.84-9.11,22.49v-2.72c4.65-1,5.82-9.56,5.82-18.22v-9.88c0-9.5-1.81-15.7-9-15.7s-8.86,6-8.92,15.7v9.88c0,8.92,1.55,17.32,5.81,18.42v2.64c-9.11-2.64-9.11-15.5-9.11-22.41v-7.31c0-8.46,1-19.57,12.22-19.57s12.27,11.11,12.27,19.19Z"/><path class="cls-4" d="M775.47,220.45c0,5.23-2.59,13.63-7.82,17.06l-1.94-1.81c4.91-4.07,6.4-10.92,6.4-15.57V218c0-7.1-3.49-10.85-7.88-10.85-6.85,0-8.21,4.39-8.21,10v9.63h-3v-9.63c0-5.36-1.16-10.27-7.43-10.27s-7.5,5.1-7.5,10.08v9.82h-3V216.9c0-5-.39-9.76-8.07-9.76-5.63,0-8,5.3-8,12V224c0,16.35,16.22,25.85,37.67,25.85h5v3h-4.91c-27.27,0-41.16-12.86-41.16-28.75V219c0-8.27,3.42-14.47,11.31-14.47,4.13,0,7.88.65,9.62,7.62,1.68-6.91,5-7.94,8.92-7.94,3.68,0,7.23,1.23,8.85,7.94,1.81-6.84,6.4-7.62,9.69-7.62,6.33,0,11.31,4.72,11.31,13.18Z"/><path class="cls-4" d="M831.88,233.63c0,9.3-2.39,18.22-11.57,19.83v-2.64c6-1.49,8.27-8.08,8.27-16.74V222.84c0-7.88.13-16-7.62-16-7.56,0-7.62,7.69-7.62,12.27v16.74c0,8.52-1.3,17.63-11.89,17.63-10.08,0-11.89-9.3-11.89-18.54V222c0-8.27,1.36-17.83,11.82-17.83,2.26,0,8.14,1,10,9.11,1.35-8.14,7-9.11,9.62-9.11,10.28,0,10.86,9.17,10.86,17.51ZM810,219.09c0-4.58-1.81-12.27-8.59-12.27-7.89,0-8.66,9-8.66,16.47V234.4c0,10.92,1.23,16.48,8.66,16.48,6.78,0,8.59-5.62,8.59-14.86Z"/><path class="cls-4" d="M871.81,238.15c0,7.89-4.33,15.31-12.92,15.31S846,246,846,238.67v-2.26c0-2.33,1.29-5,3-7.56l2.07,1a17.88,17.88,0,0,0-1.74,6.53v2.45c0,5.95,2.39,12,9.56,12,6.66,0,9.63-5,9.63-12.92v-2.39c0-6.79-3.82-10.86-7.63-14.8-3.49-3.81-7-7.49-7-13.37v-2.59h3v2.59c0,5,3.36,8.53,6.85,12.34,3.94,4.2,8.14,8.72,8.14,15.83Z"/><path class="cls-4" d="M931.06,238.41c0,7.88-5.16,15.05-12.72,15.05-8.47,0-13.12-7.1-13.12-14.79V234c0-6.26,4.65-14.6,13.12-14.6a10.13,10.13,0,0,1,9.43,5.75h.32V213.41c0-4.14-4.84-6.59-9.37-6.59-5.75,0-9,2.45-9,5.29v3.11h-3v-3.11c0-4.26,5.95-7.94,12-7.94,6.46,0,12.34,3.61,12.34,9.17Zm-3.36-4.59c0-8.07-4.13-11.82-9.49-11.82-6.4,0-9.7,6.78-9.7,11.95v4.72c0,6.59,3.69,12.15,9.83,12.15,5.29,0,9.36-5.24,9.36-12.15Z"/><path class="cls-4" d="M986.18,224.52c0-10.27-.52-17.7-8.79-17.7-6,0-8,4.58-8,11.5v18.73h-3.3V218.32c0-7.37-1.87-11.5-8-11.5-7.69,0-8.91,7.56-8.91,18.09v5.36c0,8.85,2.52,20,9,20.55v2.64c-9.7-.51-12.28-14.47-12.28-23.06v-5.49c0-10.86,1.49-20.74,12.28-20.74,5.17,0,8.27,3,9.43,8.72,1.55-5.75,4.14-8.72,9.76-8.72,10.33,0,12.21,9.88,12.27,20.16l-.06,6.07c0,8.59-2.91,22.55-12.15,23.06v-2.64c5.94-.52,8.79-11.7,8.79-20.81Z"/><path class="cls-4" d="M1029.47,241.12c0,6.08-4.46,12.34-12.92,12.34-9,0-12.92-7-12.92-12.08V240c0-2.13,1.48-6.27,4.26-8.2l1.74,1.81a7.2,7.2,0,0,0-2.71,6.26V241c.07,5.1,3.1,9.88,9.63,9.88s9.62-4.65,9.62-9.76v-5.36c0-3.36-2.45-7.43-6.84-7.43h-3.75v-2.71h3.75c3.68,0,6.52-6.2,6.52-9.18V215c0-3.81-3-8.14-9.17-8.14-5.43,0-8.92,4.13-8.92,7v1c0,2.39,1,3.68,2.07,5.23l-2.59,1.23a10.86,10.86,0,0,1-2.32-6.2v-1.62c0-4.39,4.65-9.3,11.69-9.3,8.21,0,12.54,5.36,12.54,10.46v2.2c0,2.2-.65,6.59-7.11,10.15,6.07,1.67,7.43,5.87,7.43,8.78Z"/><path class="cls-4" d="M1103.26,220.45c0,5.23-2.59,13.63-7.82,17.06l-1.94-1.81c4.91-4.07,6.4-10.92,6.4-15.57V218c0-7.1-3.49-10.85-7.88-10.85-6.85,0-8.21,4.39-8.21,10v9.63h-3v-9.63c0-5.36-1.16-10.27-7.43-10.27s-7.5,5.1-7.5,10.08v9.82h-3V216.9c0-5-.39-9.76-8.07-9.76-5.63,0-7.95,5.3-7.95,12V224c0,16.35,16.22,25.85,37.67,25.85h5v3h-4.9c-27.27,0-41.16-12.86-41.16-28.75V219c0-8.27,3.42-14.47,11.31-14.47,4.13,0,7.88.65,9.62,7.62,1.68-6.91,5-7.94,8.92-7.94,3.68,0,7.23,1.23,8.85,7.94,1.81-6.84,6.4-7.62,9.69-7.62,6.33,0,11.31,4.72,11.31,13.18Z"/><path class="cls-4" d="M1142.48,238.15c0,7.89-4.33,15.31-12.92,15.31s-12.92-7.42-12.92-14.79v-2.26c0-2.33,1.29-5,3-7.56l2.07,1a17.88,17.88,0,0,0-1.74,6.53v2.45c0,5.95,2.39,12,9.56,12,6.65,0,9.63-5,9.63-12.92v-2.39c0-6.79-3.82-10.86-7.63-14.8-3.49-3.81-7-7.49-7-13.37v-2.59h3v2.59c0,5,3.36,8.53,6.85,12.34,3.94,4.2,8.14,8.72,8.14,15.83Z"/></g></g></svg>