<svg width="20" height="20" viewBox="0 0 20 20" fill="none" xmlns="http://www.w3.org/2000/svg">
<path d="M8.83519 13.5834C8.92752 13.6652 9.06655 13.6669 9.16091 13.5853C11.2188 11.7998 13.0947 9.92708 15.333 8.03735C15.5261 7.87425 15.6412 7.6463 15.6573 7.39491C15.7067 6.61363 14.7764 6.10202 14.1441 6.625C12.2291 8.20655 10.637 9.64106 9.15192 11.1237C8.86007 10.8322 8.46966 10.4151 7.98791 9.87993C7.61546 9.46631 6.94328 9.39474 6.49112 9.8414C6.09396 10.2334 6.07502 10.8627 6.44761 11.2743C7.34692 12.2668 7.91151 12.7622 8.83519 13.5834Z" fill="#E6007E"/>
<path d="M4.00203 18.0215C7.15598 20.4725 11.9278 20.6653 15.2323 18.4214C18.0716 16.4934 19.7371 12.7863 19.4358 9.34991C19.2562 4.24194 15.9372 1.06167 10.4782 0.813164C8.87266 0.737072 7.31236 1.13423 5.93667 1.9421C3.63865 3.02375 1.73847 4.97838 0.88101 7.37538C-0.464359 11.1363 0.848061 15.5706 4.00203 18.0215ZM2.90603 5.97022C4.44864 3.08441 7.20038 1.15549 10.4558 1.30567C15.8549 1.55161 18.9514 4.64407 18.9514 9.79037C18.9514 14.4686 15.1453 18.2747 10.467 18.2747C4.02092 18.2747 0.033491 11.3445 2.90603 5.97022Z" fill="#E6007E"/>
</svg>
